<svg width="559" height="330" viewBox="0 0 559 330" fill="none" xmlns="http://www.w3.org/2000/svg">
<path d="M220.289 0L232.265 2.91275C275.579 20.5374 282.886 87.6958 345.032 65.8249C380.723 53.2647 402.042 25.5851 445.928 31.744C506.888 40.3004 550.665 109.779 557.787 158.818L559 167.357V189.918L556.563 204.125C546.61 252.201 492.795 295.299 434.561 286.464C375.748 277.54 323.582 219.568 261.112 250.935C221.683 270.731 196.262 318.258 151.09 328.091C147.413 328.892 143.632 329.229 139.956 330H120.259L107.815 327.885C68.4477 318.551 50.7475 290.74 64.5354 256.669C71.522 239.402 84.0084 225.865 94.6216 210.503C102.45 199.168 104.841 188.965 90.7981 180.416C66.9878 165.926 35.8666 183.214 12.2147 167.462C5.80351 163.192 2.04563 156.575 0.145443 149.85C0.481451 145.853 -0.310292 141.317 0.145443 137.391C0.921737 130.704 6.07386 121.08 10.4149 115.534C25.0371 96.8617 46.1785 96.3667 68.1117 88.3895C110.7 72.9031 130.849 32.6161 169.358 11.6645C178.002 6.96031 192.809 0.922653 202.909 0.00336735H220.289V0Z" fill="#EDEDED"/>
</svg>
