<svg width="66" height="60" viewBox="0 0 66 60" fill="none" xmlns="http://www.w3.org/2000/svg">
<path d="M40.6837 13.4179C39.3482 12.2298 37.4564 11.7118 35.5792 12.1601C31.2894 13.1861 29.8966 18.1134 27.21 20.6865C26.1213 21.7287 24.8081 22.509 23.5919 23.374C22.5379 24.1235 21.4251 24.923 20.6524 25.9999C19.774 27.2239 19.7844 28.8138 20.6817 30.04C22.3696 32.3464 25.1948 33.3834 27.21 35.3134C29.8954 37.8866 31.2895 42.8149 35.5792 43.8398C37.4574 44.2891 39.3492 43.77 40.6837 42.582C42.8484 40.6541 42.1083 37.5737 40.1778 35.7284C37.7076 33.3675 33.7236 32.8857 31.2315 30.6064C31.1249 30.5096 31.0196 30.4072 30.9151 30.3007C29.6737 29.0408 29.6737 26.9581 30.9151 25.6982C31.0196 25.5917 31.1249 25.4893 31.2315 25.3925C33.7236 23.1132 37.7076 22.6324 40.1778 20.2704C42.1081 18.4242 42.8481 15.3457 40.6837 13.4179Z" fill="#72C9A9"/>
<path fill-rule="evenodd" clip-rule="evenodd" d="M37.1895 0.413016C31.7279 -0.216952 26.7182 -0.126862 22.295 0.68743C17.3026 1.60566 13.0499 3.44635 9.65533 6.15813C4.06425 10.624 0.838481 17.3712 0.0693893 26.2109C-0.409653 31.7129 1.6065 38.4657 5.59967 44.7392C9.47659 50.8305 14.6207 55.6344 19.711 57.9199C22.8177 59.3148 26.388 59.9999 30.167 59.9999C36.1622 59.9999 42.6856 58.2774 48.7383 54.9355C53.1943 52.4754 57.0755 49.2751 59.9639 45.6835C63.1575 41.7127 65.0598 37.4353 65.6192 32.9716C66.2611 27.849 66.0933 23.2865 65.1212 19.4111C64.163 15.5903 62.3928 12.2963 59.8575 9.622C55.2907 4.80364 47.7155 1.77306 37.6827 0.475516V0.469657C37.5634 0.454688 37.4474 0.442547 37.3292 0.428641C37.2824 0.422212 37.2362 0.41642 37.1895 0.411063V0.413016ZM30.3575 3.21477C32.556 3.21478 34.8657 3.36134 37.2794 3.65813C46.7711 4.82391 53.377 7.49291 57.4766 11.8173C61.9391 16.5254 63.544 23.3173 62.3838 32.5781C61.4451 40.0707 55.7487 47.38 47.1456 52.1308C41.572 55.2091 35.6064 56.7997 30.1827 56.7997C26.8684 56.7997 23.7569 56.2058 21.0596 54.995C16.6017 52.9935 11.8539 48.5202 8.35943 43.0302L8.35748 43.0292C4.73367 37.3365 2.89621 31.3058 3.31549 26.4853C4.00636 18.5489 6.82883 12.551 11.7051 8.65618C16.2088 5.0582 22.5787 3.21477 30.3575 3.21477Z" fill="#72C9A9"/>
</svg>
