<svg width="602" height="335" viewBox="0 0 602 335" fill="none" xmlns="http://www.w3.org/2000/svg">
<path d="M481.451 120.671C491.431 120.116 507.245 120.122 516.693 122.482C538.265 127.883 545.671 147.152 540.275 163.1C535.849 176.178 523.37 182.293 506.706 183.504C501.221 183.906 495.324 182.58 493.701 188.083C492.072 193.598 493.593 201.448 496.142 206.715C497.943 210.439 503.022 215.387 497.69 218.69C494.037 220.953 482.427 220.794 477.71 220.45C463.265 219.404 468.224 212.83 470.158 205.095C473.106 193.311 473.277 181.26 473.613 169.304C473.924 158.222 474.66 146.712 473.341 135.662C472.453 128.22 467.938 121.41 481.451 120.658V120.671ZM499.18 131.001C495.407 131.434 494.164 134.214 493.657 136.803C492.268 143.875 492.611 155.626 493.042 162.953C493.41 169.221 494.132 173.174 503.606 172.505C521.772 171.223 523.199 148.912 516.471 139.15C513.206 134.412 506.491 130.153 499.18 130.994V131.001Z" fill="#2B2B2B"/>
<path d="M346.334 120.301C351.241 120.001 359.732 119.912 363.39 122.864C366.979 125.766 369.294 135.726 370.619 139.979C376.985 160.358 381.69 181.789 389.413 201.779C390.662 205.006 393.884 210.496 394.391 213.435C395.209 218.211 390.777 219.519 385.729 220.061C380.771 220.596 366.44 220.858 362.49 218.594C357.107 215.514 362.363 210.7 364.006 207.161C366.681 201.378 368.742 186.922 359.047 184.607C352.193 182.969 338.991 184.588 333.969 188.969C328.433 193.796 327.958 205.522 334.508 209.858C337.266 211.682 345.427 212.594 342.307 216.943C338.864 221.725 320.602 221.534 314.674 220.379C302.449 217.988 303.482 212.033 306.887 204.139C311.966 192.355 319.245 180.374 325.054 168.679C328.63 161.474 332.377 154.032 335.624 146.744C337.475 142.587 340.735 135.923 340.018 131.581C339.543 128.705 335.897 127.481 337.26 124.069C338.427 121.149 343.024 120.499 346.34 120.301H346.334ZM349.777 140.75C349.441 141.012 348.553 142.925 348.318 143.435C344.856 150.946 339.961 161.824 337.957 169.502C337.368 171.778 336.226 174.418 340.234 174.947C342.688 175.272 353.676 175.272 356.124 174.947C360.588 174.348 359.503 170.624 359.003 168.143C357.601 161.155 355.636 152.183 353.264 145.437C352.96 144.57 351.584 140.667 350.62 140.508C350.392 140.47 349.935 140.616 349.764 140.75H349.777Z" fill="#2B2B2B"/>
<path d="M397.485 120.671C417.009 119.733 437.908 121.06 457.527 120.83C469.942 121.487 468.496 133.188 467.412 139.826C466.981 142.485 465.592 149.301 460.26 148.491C456.423 147.905 454.762 141.522 452.765 139.099C449.467 135.113 440.774 130.65 438.809 137.938C438.466 139.213 438.206 140.961 438.117 142.261C437.471 151.405 438.187 161.461 438.441 170.637C438.764 182.618 438.358 195.696 443.456 207.161C445.143 210.955 449.683 215.922 443.742 219.021C439.303 221.336 422.703 221.017 417.465 219.869C415.176 219.366 412.602 218.052 411.974 216.247C410.858 213.046 414.219 205.159 414.98 201.403C416.33 194.733 416.457 188.344 416.793 181.636C417.408 169.457 417.801 157.125 417.091 144.927C416.837 140.623 417.751 132.142 408.449 134.533C404.885 135.451 402.146 138.372 400.561 140.769C398.918 143.263 396.756 150.742 391.056 147.987C386.395 145.73 383.738 131.944 384.233 127.985C384.956 122.176 390.713 121.002 397.498 120.677L397.485 120.671Z" fill="#2B2B2B"/>
<path d="M571.751 235.249C568.72 237.449 573.773 249.756 572.651 251.726C571.465 253.805 559.056 254.028 557.871 251.701C556.786 249.59 559.228 243.743 559.481 240.778C560.02 234.491 559.9 223.096 559.513 216.681C559.069 209.31 553.863 203.877 563.019 202.806C573.995 201.518 598.541 202.602 595.085 222.401C594.134 227.846 590.919 229.319 588.573 232.922C588.789 233.866 594.483 242.927 595.345 243.826C597.317 245.892 605.275 248.111 600.468 252.019C596.283 255.431 586.683 252.969 583.215 248.283C580.964 245.241 576.379 231.889 571.751 235.243V235.249ZM571.757 228.267C572.657 228.924 577.191 228.305 578.542 227.795C585.377 225.206 584.585 212.103 577.451 209.922C576.278 209.565 572.201 209.004 571.592 210.005C570.616 211.618 570.717 227.508 571.757 228.267Z" fill="#2B2B2B"/>
<path d="M541.999 226.871L548.93 230.295C557.915 237.985 553.629 248.251 543.775 251.726C538.106 253.722 522.628 253.964 516.497 253.205C509.395 252.325 514.353 245.885 514.791 240.81C515.336 234.503 515.349 221.476 514.753 215.208C514.068 208.028 508.399 203.845 519.312 202.8C526.49 202.111 539.387 202.487 545.436 206.976C553.324 212.823 551.809 225.512 541.993 226.871H541.999ZM527.333 211.446C526.858 214.577 527.333 220.003 527.333 223.485C527.333 225.251 536.572 226.482 537.161 218.262C537.453 214.169 536.737 210.49 532.533 209.616C530.561 209.208 527.714 208.934 527.333 211.446ZM528.176 231.532C527.39 236.831 524.594 247.581 531.835 247.199C546.292 246.434 541.575 227.209 528.176 231.532Z" fill="#2B2B2B"/>
<path d="M326.258 257.101C326.258 257.408 326.138 257.663 325.897 257.873C325.656 258.083 325.377 258.192 325.06 258.192C324.851 258.192 324.654 258.134 324.47 258.026C324.286 257.918 324.141 257.739 324.039 257.503L322.86 254.851H315.929L314.75 257.503C314.642 257.739 314.503 257.918 314.319 258.026C314.135 258.141 313.932 258.192 313.71 258.192C313.406 258.192 313.133 258.09 312.886 257.873C312.638 257.663 312.512 257.408 312.512 257.101C312.512 256.929 312.55 256.757 312.632 256.585L318.066 244.846C318.187 244.584 318.364 244.38 318.605 244.24C318.846 244.1 319.106 244.03 319.385 244.03C319.664 244.03 319.918 244.1 320.165 244.24C320.406 244.38 320.59 244.578 320.704 244.846L326.157 256.585C326.233 256.757 326.278 256.929 326.278 257.101H326.258ZM321.985 252.861L319.385 246.982L316.785 252.861H321.985Z" fill="#2B2B2B"/>
<path d="M330.247 257.86C330.019 257.631 329.904 257.325 329.904 256.942V246.249H326.322C325.536 246.249 325.142 245.898 325.142 245.197C325.142 244.495 325.536 244.144 326.322 244.144H336.03C336.816 244.144 337.209 244.495 337.209 245.197C337.209 245.898 336.816 246.249 336.03 246.249H332.447V256.942C332.447 257.325 332.333 257.631 332.105 257.86C331.876 258.09 331.572 258.205 331.192 258.205C330.811 258.205 330.488 258.09 330.26 257.86H330.247Z" fill="#2B2B2B"/>
<path d="M339.194 257.79C338.985 257.58 338.877 257.286 338.877 256.917V245.318C338.877 244.935 338.991 244.629 339.219 244.4C339.447 244.17 339.752 244.055 340.132 244.055C340.513 244.055 340.836 244.17 341.064 244.4C341.293 244.629 341.407 244.935 341.407 245.318V256.011H346.936C347.722 256.011 348.115 256.362 348.115 257.063C348.115 257.765 347.722 258.115 346.936 258.115H340.069C339.688 258.115 339.39 258.013 339.181 257.796L339.194 257.79Z" fill="#2B2B2B"/>
<path d="M362.56 257.101C362.56 257.408 362.439 257.663 362.198 257.873C361.957 258.083 361.678 258.192 361.361 258.192C361.152 258.192 360.956 258.134 360.772 258.026C360.588 257.918 360.442 257.739 360.341 257.503L359.161 254.851H352.231L351.051 257.503C350.943 257.739 350.804 257.918 350.62 258.026C350.436 258.141 350.233 258.192 350.011 258.192C349.707 258.192 349.434 258.09 349.187 257.873C348.94 257.663 348.813 257.408 348.813 257.101C348.813 256.929 348.851 256.757 348.933 256.585L354.367 244.846C354.488 244.584 354.665 244.38 354.906 244.24C355.147 244.1 355.407 244.03 355.686 244.03C355.965 244.03 356.219 244.1 356.466 244.24C356.707 244.38 356.891 244.578 357.005 244.846L362.458 256.585C362.534 256.757 362.579 256.929 362.579 257.101H362.56ZM358.286 252.861L355.686 246.982L353.087 252.861H358.286Z" fill="#2B2B2B"/>
<path d="M366.428 257.879C365.527 257.612 364.798 257.242 364.234 256.783C363.929 256.559 363.784 256.241 363.784 255.833C363.784 255.558 363.866 255.316 364.031 255.112C364.196 254.908 364.386 254.806 364.614 254.806C364.849 254.806 365.122 254.902 365.42 255.08C365.984 255.488 366.574 255.788 367.189 255.973C367.804 256.158 368.489 256.247 369.237 256.247C370.194 256.247 370.93 256.081 371.443 255.743C371.957 255.405 372.211 254.914 372.211 254.27C372.211 253.767 371.97 253.384 371.494 253.11C371.012 252.842 370.22 252.581 369.104 252.325C367.95 252.077 367.011 251.783 366.288 251.452C365.565 251.12 365.02 250.699 364.652 250.183C364.285 249.666 364.101 249.016 364.101 248.225C364.101 247.435 364.329 246.676 364.792 246.032C365.248 245.388 365.889 244.878 366.713 244.514C367.531 244.151 368.457 243.972 369.478 243.972C371.355 243.972 372.883 244.476 374.062 245.477C374.233 245.624 374.354 245.764 374.424 245.904C374.493 246.045 374.531 246.217 374.531 246.427C374.531 246.701 374.449 246.944 374.284 247.148C374.119 247.352 373.929 247.454 373.701 247.454C373.568 247.454 373.447 247.435 373.339 247.396C373.225 247.358 373.079 247.282 372.895 247.18C372.356 246.784 371.836 246.491 371.329 246.3C370.822 246.108 370.201 246.013 369.471 246.013C368.577 246.013 367.873 246.191 367.354 246.555C366.834 246.918 366.574 247.422 366.574 248.066C366.574 248.608 366.802 249.022 367.265 249.316C367.721 249.609 368.508 249.877 369.604 250.126C370.771 250.387 371.722 250.68 372.452 251.006C373.181 251.331 373.739 251.739 374.126 252.243C374.512 252.746 374.709 253.371 374.709 254.124C374.709 254.94 374.481 255.667 374.03 256.292C373.58 256.916 372.94 257.408 372.122 257.758C371.304 258.109 370.359 258.281 369.294 258.281C368.229 258.281 367.328 258.147 366.428 257.873V257.879Z" fill="#2B2B2B"/>
<path d="M386.351 257.86C386.122 257.631 386.008 257.325 386.008 256.942V246.249H382.426C381.639 246.249 381.246 245.898 381.246 245.197C381.246 244.495 381.639 244.144 382.426 244.144H392.134C392.92 244.144 393.313 244.495 393.313 245.197C393.313 245.898 392.92 246.249 392.134 246.249H388.551V256.942C388.551 257.325 388.437 257.631 388.209 257.86C387.98 258.09 387.676 258.205 387.295 258.205C386.915 258.205 386.592 258.09 386.363 257.86H386.351Z" fill="#2B2B2B"/>
<path d="M396.382 256.802C395.399 255.813 394.904 254.366 394.904 252.466V245.318C394.904 244.935 395.019 244.629 395.241 244.4C395.462 244.17 395.767 244.055 396.147 244.055C396.528 244.055 396.832 244.17 397.054 244.4C397.276 244.629 397.39 244.935 397.39 245.318V252.606C397.39 253.805 397.675 254.717 398.24 255.329C398.804 255.941 399.628 256.247 400.719 256.247C401.81 256.247 402.615 255.935 403.179 255.316C403.744 254.698 404.029 253.792 404.029 252.606V245.318C404.029 244.935 404.143 244.629 404.365 244.4C404.587 244.17 404.891 244.055 405.272 244.055C405.652 244.055 405.957 244.17 406.178 244.4C406.4 244.629 406.515 244.935 406.515 245.318V252.466C406.515 254.353 406.02 255.794 405.037 256.789C404.054 257.784 402.615 258.281 400.725 258.281C398.836 258.281 397.377 257.784 396.395 256.795L396.382 256.802Z" fill="#2B2B2B"/>
<path d="M422.798 244.4C423.02 244.629 423.134 244.935 423.134 245.318V257.038C423.134 257.407 423.026 257.701 422.817 257.911C422.608 258.122 422.329 258.23 421.993 258.23C421.657 258.23 421.384 258.128 421.187 257.911C420.991 257.701 420.889 257.407 420.889 257.038V248.882L417.541 255.259C417.383 255.552 417.212 255.762 417.028 255.903C416.844 256.043 416.628 256.113 416.381 256.113C416.134 256.113 415.918 256.049 415.728 255.915C415.544 255.781 415.373 255.565 415.214 255.259L411.847 248.984V257.038C411.847 257.395 411.746 257.682 411.543 257.898C411.34 258.115 411.067 258.224 410.725 258.224C410.383 258.224 410.116 258.122 409.92 257.905C409.723 257.694 409.622 257.401 409.622 257.031V245.311C409.622 244.929 409.729 244.623 409.945 244.393C410.161 244.164 410.452 244.049 410.82 244.049C411.334 244.049 411.733 244.336 412.018 244.897L416.387 253.269L420.737 244.897C421.029 244.329 421.416 244.049 421.898 244.049C422.265 244.049 422.557 244.164 422.785 244.393L422.798 244.4Z" fill="#2B2B2B"/>
<path d="M428.987 257.414C427.997 256.834 427.23 256.005 426.691 254.921C426.152 253.837 425.886 252.574 425.886 251.12C425.886 249.666 426.152 248.404 426.685 247.333C427.217 246.261 427.978 245.426 428.98 244.846C429.976 244.266 431.149 243.972 432.506 243.972C433.863 243.972 435.029 244.266 436.019 244.846C437.008 245.426 437.769 246.255 438.301 247.333C438.834 248.41 439.1 249.673 439.1 251.12C439.1 252.568 438.834 253.837 438.295 254.921C437.756 256.005 436.995 256.834 436 257.414C435.01 257.994 433.844 258.287 432.506 258.287C431.168 258.287 429.982 257.994 428.993 257.414H428.987ZM435.486 254.921C436.202 254.034 436.558 252.772 436.558 251.12C436.558 249.469 436.202 248.206 435.486 247.333C434.769 246.453 433.774 246.013 432.506 246.013C431.238 246.013 430.217 246.453 429.507 247.333C428.79 248.213 428.435 249.475 428.435 251.12C428.435 252.765 428.79 254.034 429.507 254.921C430.223 255.807 431.225 256.247 432.506 256.247C433.787 256.247 434.769 255.807 435.486 254.921Z" fill="#2B2B2B"/>
<path d="M453.17 257.197C453.17 257.503 453.05 257.752 452.809 257.95C452.568 258.147 452.283 258.249 451.953 258.249C451.744 258.249 451.541 258.198 451.351 258.103C451.16 258.001 451.002 257.854 450.869 257.656L448.25 253.658C447.99 253.237 447.711 252.938 447.413 252.765C447.115 252.593 446.735 252.51 446.259 252.51H444.331V256.942C444.331 257.337 444.217 257.65 443.995 257.879C443.773 258.109 443.469 258.224 443.089 258.224C442.708 258.224 442.404 258.109 442.175 257.879C441.947 257.65 441.833 257.337 441.833 256.942V245.362C441.833 244.98 441.941 244.686 442.156 244.47C442.372 244.259 442.67 244.151 443.05 244.151H447.971C449.544 244.151 450.742 244.502 451.566 245.209C452.391 245.917 452.796 246.937 452.796 248.27C452.796 249.354 452.492 250.24 451.883 250.935C451.275 251.63 450.412 252.07 449.296 252.274C449.677 252.364 450.013 252.53 450.298 252.772C450.583 253.014 450.869 253.339 451.148 253.76L452.942 256.515C453.101 256.751 453.177 256.98 453.177 257.21L453.17 257.197ZM449.727 250.004C450.171 249.641 450.4 249.086 450.4 248.334C450.4 247.581 450.178 247.014 449.727 246.663C449.284 246.312 448.58 246.14 447.622 246.14H444.312V250.553H447.622C448.58 250.553 449.284 250.374 449.727 250.011V250.004Z" fill="#2B2B2B"/>
<path d="M468.23 257.101C468.23 257.408 468.11 257.663 467.869 257.873C467.628 258.083 467.349 258.192 467.032 258.192C466.822 258.192 466.626 258.134 466.442 258.026C466.258 257.918 466.112 257.739 466.011 257.503L464.831 254.851H457.901L456.721 257.503C456.614 257.739 456.474 257.918 456.29 258.026C456.106 258.141 455.903 258.192 455.682 258.192C455.377 258.192 455.105 258.09 454.857 257.873C454.61 257.663 454.483 257.408 454.483 257.101C454.483 256.929 454.521 256.757 454.604 256.585L460.038 244.846C460.158 244.584 460.336 244.38 460.577 244.24C460.818 244.1 461.078 244.03 461.357 244.03C461.636 244.03 461.889 244.1 462.137 244.24C462.377 244.38 462.561 244.578 462.676 244.846L468.129 256.585C468.205 256.757 468.249 256.929 468.249 257.101H468.23ZM463.956 252.861L461.357 246.982L458.757 252.861H463.956Z" fill="#2B2B2B"/>
<path d="M470.633 257.79C470.424 257.58 470.316 257.286 470.316 256.917V245.318C470.316 244.935 470.43 244.629 470.659 244.4C470.887 244.17 471.191 244.055 471.572 244.055C471.952 244.055 472.276 244.17 472.504 244.4C472.732 244.629 472.846 244.935 472.846 245.318V256.011H478.375C479.162 256.011 479.555 256.362 479.555 257.063C479.555 257.765 479.162 258.115 478.375 258.115H471.508C471.128 258.115 470.83 258.013 470.621 257.796L470.633 257.79Z" fill="#2B2B2B"/>
<path d="M313.887 284.227C313.672 284.016 313.564 283.717 313.564 283.334V271.793C313.564 271.41 313.672 271.117 313.887 270.9C314.103 270.69 314.401 270.581 314.782 270.581H318.681C320.951 270.581 322.714 271.193 323.969 272.411C325.225 273.636 325.846 275.344 325.846 277.551C325.846 279.757 325.219 281.485 323.969 282.709C322.714 283.927 320.951 284.539 318.681 284.539H314.782C314.401 284.539 314.103 284.437 313.887 284.221V284.227ZM318.523 282.467C321.712 282.467 323.304 280.828 323.304 277.557C323.304 274.286 321.712 272.666 318.523 272.666H316.1V282.467H318.523Z" fill="#2B2B2B"/>
<path d="M340.925 283.532C340.925 283.838 340.804 284.093 340.563 284.303C340.322 284.514 340.043 284.622 339.726 284.622C339.517 284.622 339.321 284.565 339.137 284.456C338.953 284.348 338.807 284.169 338.706 283.934L337.526 281.281H330.596L329.416 283.934C329.308 284.169 329.169 284.348 328.985 284.456C328.801 284.571 328.598 284.622 328.376 284.622C328.072 284.622 327.799 284.52 327.552 284.303C327.305 284.093 327.178 283.838 327.178 283.532C327.178 283.36 327.216 283.187 327.298 283.015L332.732 271.276C332.853 271.015 333.03 270.811 333.271 270.671C333.512 270.53 333.772 270.46 334.051 270.46C334.33 270.46 334.584 270.53 334.831 270.671C335.072 270.811 335.256 271.008 335.37 271.276L340.823 283.015C340.899 283.187 340.944 283.36 340.944 283.532H340.925ZM336.651 279.298L334.051 273.419L331.452 279.298H336.651Z" fill="#2B2B2B"/>
<path d="M348.87 284.316C348.642 284.087 348.527 283.774 348.527 283.379V271.799C348.527 271.417 348.635 271.123 348.851 270.906C349.066 270.696 349.364 270.588 349.745 270.588H354.589C356.073 270.588 357.227 270.957 358.051 271.704C358.876 272.45 359.294 273.495 359.294 274.841C359.294 276.186 358.882 277.238 358.051 277.991C357.227 278.743 356.073 279.119 354.589 279.119H351.064V283.379C351.064 283.774 350.95 284.087 350.721 284.316C350.493 284.546 350.182 284.66 349.789 284.66C349.396 284.66 349.104 284.546 348.876 284.316H348.87ZM354.272 277.162C356.016 277.162 356.891 276.397 356.891 274.866C356.891 273.336 356.016 272.571 354.272 272.571H351.064V277.162H354.272Z" fill="#2B2B2B"/>
<path d="M364.304 283.851C363.314 283.27 362.547 282.441 362.008 281.357C361.469 280.273 361.203 279.011 361.203 277.557C361.203 276.103 361.469 274.841 362.002 273.77C362.534 272.692 363.295 271.863 364.297 271.283C365.293 270.702 366.466 270.409 367.823 270.409C369.18 270.409 370.346 270.702 371.336 271.283C372.325 271.863 373.086 272.692 373.618 273.77C374.151 274.847 374.417 276.11 374.417 277.557C374.417 279.005 374.151 280.273 373.612 281.357C373.073 282.441 372.312 283.27 371.317 283.851C370.327 284.431 369.161 284.724 367.823 284.724C366.485 284.724 365.299 284.431 364.31 283.851H364.304ZM370.797 281.357C371.513 280.471 371.868 279.209 371.868 277.557C371.868 275.906 371.513 274.643 370.797 273.77C370.08 272.89 369.085 272.45 367.816 272.45C366.548 272.45 365.527 272.89 364.817 273.77C364.101 274.649 363.746 275.912 363.746 277.557C363.746 279.202 364.101 280.471 364.817 281.357C365.534 282.244 366.535 282.684 367.816 282.684C369.097 282.684 370.08 282.244 370.797 281.357Z" fill="#2B2B2B"/>
<path d="M377.493 284.316C377.264 284.087 377.15 283.774 377.15 283.379V271.799C377.15 271.417 377.258 271.123 377.474 270.906C377.689 270.696 377.987 270.588 378.368 270.588H383.212C384.696 270.588 385.85 270.957 386.674 271.704C387.498 272.45 387.917 273.495 387.917 274.841C387.917 276.186 387.505 277.238 386.674 277.991C385.85 278.743 384.696 279.119 383.212 279.119H379.686V283.379C379.686 283.774 379.572 284.087 379.344 284.316C379.116 284.546 378.805 284.66 378.412 284.66C378.019 284.66 377.727 284.546 377.499 284.316H377.493ZM382.895 277.162C384.639 277.162 385.514 276.397 385.514 274.866C385.514 273.336 384.639 272.571 382.895 272.571H379.686V277.162H382.895Z" fill="#2B2B2B"/>
<path d="M391.715 283.239C390.732 282.25 390.238 280.803 390.238 278.903V271.755C390.238 271.372 390.352 271.066 390.574 270.836C390.796 270.607 391.1 270.492 391.48 270.492C391.861 270.492 392.165 270.607 392.387 270.836C392.609 271.066 392.723 271.372 392.723 271.755V279.043C392.723 280.242 393.009 281.153 393.573 281.766C394.137 282.378 394.962 282.684 396.052 282.684C397.143 282.684 397.948 282.371 398.512 281.753C399.077 281.134 399.362 280.229 399.362 279.043V271.755C399.362 271.372 399.476 271.066 399.698 270.836C399.92 270.607 400.224 270.492 400.605 270.492C400.985 270.492 401.29 270.607 401.512 270.836C401.734 271.066 401.848 271.372 401.848 271.755V278.903C401.848 280.79 401.353 282.231 400.37 283.226C399.387 284.221 397.948 284.718 396.059 284.718C394.169 284.718 392.711 284.22 391.728 283.232L391.715 283.239Z" fill="#2B2B2B"/>
<path d="M405.24 284.227C405.031 284.016 404.923 283.723 404.923 283.353V271.755C404.923 271.372 405.037 271.066 405.265 270.836C405.494 270.607 405.798 270.492 406.179 270.492C406.559 270.492 406.882 270.607 407.111 270.836C407.339 271.066 407.453 271.372 407.453 271.755V282.448H412.982C413.769 282.448 414.162 282.799 414.162 283.5C414.162 284.201 413.769 284.552 412.982 284.552H406.115C405.735 284.552 405.437 284.45 405.227 284.233L405.24 284.227Z" fill="#2B2B2B"/>
<path d="M428.606 283.532C428.606 283.838 428.486 284.093 428.245 284.303C428.004 284.514 427.725 284.622 427.408 284.622C427.198 284.622 427.002 284.565 426.818 284.456C426.634 284.348 426.488 284.169 426.387 283.934L425.207 281.281H418.277L417.097 283.934C416.99 284.169 416.85 284.348 416.666 284.456C416.482 284.571 416.279 284.622 416.058 284.622C415.753 284.622 415.481 284.52 415.233 284.303C414.986 284.093 414.859 283.838 414.859 283.532C414.859 283.36 414.897 283.187 414.98 283.015L420.414 271.276C420.534 271.015 420.712 270.811 420.953 270.671C421.194 270.53 421.454 270.46 421.733 270.46C422.012 270.46 422.265 270.53 422.513 270.671C422.753 270.811 422.937 271.008 423.052 271.276L428.505 283.015C428.581 283.187 428.625 283.36 428.625 283.532H428.606ZM424.332 279.298L421.733 273.419L419.133 279.298H424.332Z" fill="#2B2B2B"/>
<path d="M441.142 281.536C441.3 281.734 441.377 281.976 441.377 282.269C441.377 282.467 441.345 282.639 441.275 282.792C441.212 282.945 441.091 283.086 440.92 283.219C439.804 284.131 438.479 284.622 436.944 284.705L436.868 285.381C437.077 285.356 437.23 285.343 437.318 285.343C437.724 285.343 438.067 285.464 438.352 285.706C438.637 285.949 438.777 286.286 438.777 286.707C438.777 287.211 438.555 287.619 438.117 287.932C437.68 288.25 437.058 288.403 436.259 288.403C435.708 288.403 435.251 288.34 434.884 288.206C434.763 288.155 434.674 288.078 434.611 287.989C434.547 287.893 434.516 287.791 434.516 287.67C434.516 287.485 434.573 287.339 434.681 287.224C434.795 287.109 434.941 287.084 435.124 287.135C435.568 287.237 435.936 287.294 436.228 287.294C436.887 287.294 437.211 287.096 437.211 286.701C437.211 286.567 437.166 286.465 437.071 286.382C436.976 286.299 436.849 286.261 436.678 286.261C436.545 286.261 436.374 286.287 436.164 286.331C435.955 286.376 435.822 286.401 435.771 286.401C435.651 286.401 435.556 286.363 435.486 286.293C435.416 286.223 435.384 286.127 435.397 286.006L435.556 284.68C434.389 284.546 433.374 284.176 432.512 283.564C431.65 282.952 430.99 282.129 430.521 281.109C430.052 280.089 429.824 278.903 429.824 277.557C429.824 276.103 430.09 274.841 430.629 273.77C431.168 272.692 431.935 271.863 432.943 271.283C433.945 270.702 435.118 270.409 436.456 270.409C437.325 270.409 438.136 270.537 438.897 270.798C439.658 271.053 440.337 271.429 440.926 271.914C441.098 272.048 441.218 272.182 441.281 272.328C441.345 272.475 441.383 272.654 441.383 272.864C441.383 273.157 441.307 273.4 441.148 273.597C440.99 273.795 440.8 273.891 440.578 273.891C440.318 273.891 440.045 273.801 439.772 273.616C439.208 273.196 438.682 272.902 438.2 272.737C437.712 272.571 437.179 272.488 436.583 272.488C435.22 272.488 434.186 272.915 433.482 273.776C432.778 274.637 432.43 275.893 432.43 277.557C432.43 279.221 432.778 280.503 433.482 281.357C434.186 282.212 435.22 282.646 436.583 282.646C437.147 282.646 437.667 282.563 438.149 282.391C438.631 282.218 439.17 281.931 439.772 281.517C439.905 281.44 440.032 281.37 440.165 281.319C440.299 281.268 440.432 281.236 440.578 281.236C440.8 281.236 440.99 281.338 441.148 281.536H441.142Z" fill="#2B2B2B"/>
<path d="M456.227 283.532C456.227 283.838 456.106 284.093 455.865 284.303C455.624 284.514 455.345 284.622 455.028 284.622C454.819 284.622 454.623 284.565 454.439 284.456C454.255 284.348 454.109 284.169 454.008 283.934L452.828 281.281H445.898L444.718 283.934C444.61 284.169 444.471 284.348 444.287 284.456C444.103 284.571 443.9 284.622 443.678 284.622C443.374 284.622 443.101 284.52 442.854 284.303C442.607 284.093 442.48 283.838 442.48 283.532C442.48 283.36 442.518 283.187 442.6 283.015L448.034 271.276C448.155 271.015 448.332 270.811 448.573 270.671C448.814 270.53 449.074 270.46 449.353 270.46C449.632 270.46 449.886 270.53 450.133 270.671C450.374 270.811 450.558 271.008 450.672 271.276L456.125 283.015C456.201 283.187 456.246 283.36 456.246 283.532H456.227ZM450.089 268.936C449.861 268.879 449.575 268.789 449.233 268.668C448.998 268.592 448.764 268.515 448.535 268.452C448.307 268.388 448.098 268.349 447.914 268.349C447.743 268.349 447.61 268.381 447.508 268.439C447.413 268.496 447.293 268.592 447.166 268.726C447.045 268.847 446.956 268.93 446.893 268.974C446.83 269.019 446.735 269.045 446.62 269.045C446.449 269.045 446.316 268.987 446.215 268.879C446.113 268.764 446.069 268.617 446.069 268.432C446.069 268.184 446.145 267.922 446.303 267.648C446.462 267.374 446.677 267.151 446.963 266.966C447.242 266.781 447.559 266.692 447.895 266.692C448.117 266.692 448.345 266.723 448.573 266.781C448.802 266.838 449.087 266.928 449.429 267.049C449.664 267.132 449.899 267.202 450.127 267.266C450.355 267.329 450.564 267.361 450.748 267.361C450.919 267.361 451.053 267.336 451.154 267.272C451.256 267.208 451.37 267.119 451.497 266.985C451.617 266.864 451.706 266.781 451.769 266.736C451.833 266.692 451.928 266.666 452.042 266.666C452.213 266.666 452.346 266.717 452.448 266.826C452.543 266.934 452.593 267.074 452.593 267.259C452.593 267.508 452.517 267.776 452.359 268.05C452.2 268.324 451.978 268.56 451.699 268.745C451.414 268.93 451.103 269.019 450.767 269.019C450.545 269.019 450.317 268.987 450.089 268.93V268.936ZM451.953 279.298L449.353 273.419L446.754 279.298H451.953Z" fill="#2B2B2B"/>
<path d="M460.545 283.851C459.556 283.27 458.788 282.441 458.249 281.357C457.711 280.273 457.444 279.011 457.444 277.557C457.444 276.103 457.711 274.841 458.243 273.77C458.776 272.698 459.537 271.863 460.539 271.283C461.534 270.702 462.707 270.409 464.064 270.409C465.421 270.409 466.588 270.702 467.577 271.283C468.566 271.863 469.327 272.692 469.86 273.77C470.392 274.847 470.659 276.11 470.659 277.557C470.659 279.005 470.392 280.273 469.853 281.357C469.314 282.441 468.553 283.27 467.558 283.851C466.569 284.431 465.402 284.724 464.064 284.724C462.726 284.724 461.54 284.431 460.551 283.851H460.545ZM467.044 281.357C467.761 280.471 468.116 279.209 468.116 277.557C468.116 275.906 467.761 274.643 467.044 273.77C466.328 272.89 465.332 272.45 464.064 272.45C462.796 272.45 461.775 272.89 461.065 273.77C460.348 274.649 459.993 275.912 459.993 277.557C459.993 279.202 460.348 280.471 461.065 281.357C461.781 282.244 462.783 282.684 464.064 282.684C465.345 282.684 466.328 282.244 467.044 281.357Z" fill="#2B2B2B"/>
<path d="M323.963 305.001C324.401 305.594 324.623 306.321 324.623 307.176C324.623 308.362 324.198 309.293 323.354 309.969C322.505 310.645 321.344 310.976 319.861 310.976H314.782C314.401 310.976 314.103 310.874 313.887 310.657C313.672 310.447 313.564 310.147 313.564 309.765V298.223C313.564 297.841 313.672 297.547 313.887 297.33C314.103 297.12 314.401 297.012 314.782 297.012H319.664C321.11 297.012 322.238 297.33 323.063 297.968C323.881 298.606 324.293 299.505 324.293 300.653C324.293 301.392 324.096 302.03 323.709 302.572C323.323 303.114 322.79 303.509 322.105 303.758C322.904 303.981 323.526 304.389 323.963 304.982V305.001ZM316.043 302.904H319.252C320.996 302.904 321.871 302.247 321.871 300.946C321.871 300.289 321.655 299.798 321.224 299.479C320.793 299.161 320.133 299.001 319.252 299.001H316.043V302.904ZM321.592 308.502C322.01 308.17 322.219 307.66 322.219 306.959C322.219 306.258 322.004 305.741 321.579 305.397C321.154 305.052 320.488 304.88 319.582 304.88H316.037V308.999H319.582C320.501 308.999 321.167 308.834 321.592 308.502Z" fill="#2B2B2B"/>
<path d="M338.522 310.071C338.522 310.377 338.401 310.625 338.16 310.823C337.919 311.021 337.634 311.123 337.304 311.123C337.095 311.123 336.892 311.072 336.702 310.976C336.512 310.874 336.353 310.727 336.22 310.53L333.601 306.532C333.341 306.111 333.062 305.811 332.764 305.639C332.466 305.467 332.086 305.384 331.61 305.384H329.683V309.816C329.683 310.211 329.568 310.523 329.346 310.753C329.125 310.983 328.82 311.097 328.44 311.097C328.059 311.097 327.755 310.983 327.527 310.753C327.298 310.523 327.184 310.211 327.184 309.816V298.236C327.184 297.853 327.292 297.56 327.508 297.343C327.723 297.133 328.021 297.024 328.402 297.024H333.322C334.895 297.024 336.093 297.375 336.917 298.083C337.742 298.791 338.148 299.811 338.148 301.144C338.148 302.228 337.843 303.114 337.234 303.809C336.626 304.504 335.763 304.944 334.647 305.148C335.028 305.237 335.364 305.403 335.649 305.645C335.935 305.888 336.22 306.213 336.499 306.634L338.293 309.388C338.452 309.624 338.528 309.854 338.528 310.083L338.522 310.071ZM335.079 302.872C335.522 302.508 335.751 301.953 335.751 301.201C335.751 300.449 335.529 299.881 335.079 299.53C334.635 299.18 333.931 299.008 332.973 299.008H329.663V303.42H332.973C333.931 303.42 334.635 303.241 335.079 302.878V302.872Z" fill="#2B2B2B"/>
<path d="M353.581 309.969C353.581 310.275 353.461 310.53 353.22 310.74C352.979 310.951 352.7 311.059 352.383 311.059C352.174 311.059 351.977 311.002 351.793 310.893C351.609 310.785 351.463 310.606 351.362 310.37L350.182 307.718H343.252L342.073 310.37C341.965 310.606 341.825 310.785 341.641 310.893C341.457 311.008 341.255 311.059 341.033 311.059C340.728 311.059 340.456 310.957 340.208 310.74C339.961 310.53 339.834 310.275 339.834 309.969C339.834 309.796 339.872 309.624 339.955 309.452L345.389 297.713C345.509 297.452 345.687 297.248 345.928 297.107C346.169 296.967 346.429 296.897 346.708 296.897C346.987 296.897 347.24 296.967 347.488 297.107C347.729 297.248 347.912 297.445 348.027 297.713L353.48 309.452C353.556 309.624 353.6 309.796 353.6 309.969H353.581ZM349.314 305.735L346.714 299.856L344.114 305.735H349.314Z" fill="#2B2B2B"/>
<path d="M357.449 310.753C356.549 310.485 355.819 310.115 355.255 309.656C354.951 309.433 354.805 309.114 354.805 308.706C354.805 308.432 354.887 308.19 355.052 307.986C355.217 307.782 355.407 307.68 355.636 307.68C355.87 307.68 356.143 307.775 356.441 307.954C357.005 308.362 357.595 308.661 358.21 308.846C358.825 309.031 359.51 309.121 360.258 309.121C361.216 309.121 361.951 308.955 362.465 308.617C362.978 308.279 363.232 307.788 363.232 307.144C363.232 306.64 362.991 306.258 362.515 305.983C362.034 305.716 361.241 305.454 360.125 305.199C358.971 304.95 358.032 304.657 357.31 304.326C356.587 303.994 356.041 303.573 355.674 303.057C355.306 302.54 355.122 301.89 355.122 301.099C355.122 300.308 355.35 299.55 355.813 298.906C356.276 298.261 356.91 297.751 357.734 297.388C358.552 297.024 359.478 296.846 360.499 296.846C362.376 296.846 363.904 297.35 365.083 298.351C365.255 298.497 365.375 298.638 365.445 298.778C365.515 298.918 365.553 299.09 365.553 299.301C365.553 299.575 365.47 299.817 365.305 300.021C365.141 300.225 364.95 300.327 364.722 300.327C364.589 300.327 364.468 300.308 364.361 300.27C364.246 300.232 364.101 300.155 363.917 300.053C363.378 299.658 362.858 299.365 362.351 299.173C361.843 298.982 361.222 298.886 360.493 298.886C359.599 298.886 358.895 299.065 358.375 299.428C357.855 299.792 357.595 300.296 357.595 300.94C357.595 301.482 357.823 301.896 358.286 302.189C358.743 302.483 359.529 302.751 360.626 302.999C361.793 303.261 362.744 303.554 363.473 303.879C364.202 304.204 364.76 304.612 365.147 305.116C365.534 305.62 365.73 306.245 365.73 306.997C365.73 307.813 365.502 308.54 365.052 309.165C364.602 309.79 363.961 310.281 363.143 310.632C362.325 310.983 361.38 311.155 360.315 311.155C359.25 311.155 358.349 311.021 357.449 310.747V310.753Z" fill="#2B2B2B"/>
<path d="M368.59 310.74C368.362 310.504 368.248 310.192 368.248 309.809V298.185C368.248 297.802 368.362 297.496 368.59 297.267C368.818 297.037 369.123 296.922 369.503 296.922C369.884 296.922 370.207 297.037 370.435 297.267C370.663 297.496 370.778 297.802 370.778 298.185V309.809C370.778 310.192 370.663 310.504 370.435 310.74C370.207 310.976 369.896 311.097 369.503 311.097C369.11 311.097 368.818 310.976 368.59 310.74Z" fill="#2B2B2B"/>
<path d="M374.271 310.664C374.062 310.453 373.954 310.16 373.954 309.79V298.191C373.954 297.809 374.069 297.503 374.297 297.273C374.525 297.044 374.829 296.929 375.21 296.929C375.59 296.929 375.914 297.044 376.142 297.273C376.37 297.503 376.484 297.809 376.484 298.191V308.885H382.014C382.8 308.885 383.193 309.235 383.193 309.937C383.193 310.638 382.8 310.989 382.014 310.989H375.146C374.766 310.989 374.468 310.887 374.259 310.67L374.271 310.664Z" fill="#2B2B2B"/>
<path d="M385.387 310.664C385.171 310.453 385.064 310.154 385.064 309.771V298.23C385.064 297.847 385.171 297.554 385.387 297.337C385.602 297.126 385.9 297.018 386.281 297.018H393.389C393.769 297.018 394.068 297.101 394.277 297.273C394.486 297.445 394.594 297.688 394.594 298.006C394.594 298.325 394.486 298.593 394.277 298.772C394.068 298.95 393.769 299.039 393.389 299.039H387.543V302.878H392.996C393.376 302.878 393.674 302.961 393.884 303.133C394.093 303.305 394.201 303.554 394.201 303.886C394.201 304.217 394.093 304.447 393.884 304.619C393.674 304.791 393.376 304.874 392.996 304.874H387.543V308.948H393.389C393.769 308.948 394.068 309.038 394.277 309.216C394.486 309.395 394.594 309.65 394.594 309.981C394.594 310.313 394.486 310.543 394.277 310.715C394.068 310.887 393.769 310.97 393.389 310.97H386.281C385.9 310.97 385.602 310.868 385.387 310.651V310.664Z" fill="#2B2B2B"/>
<path d="M397.174 310.74C396.946 310.504 396.832 310.192 396.832 309.809V298.185C396.832 297.802 396.946 297.496 397.174 297.267C397.403 297.037 397.707 296.922 398.088 296.922C398.468 296.922 398.791 297.037 399.02 297.267C399.248 297.496 399.362 297.802 399.362 298.185V309.809C399.362 310.192 399.248 310.504 399.02 310.74C398.791 310.976 398.481 311.097 398.088 311.097C397.694 311.097 397.403 310.976 397.174 310.74Z" fill="#2B2B2B"/>
<path d="M413.883 310.071C413.883 310.377 413.762 310.625 413.521 310.823C413.28 311.021 412.995 311.123 412.665 311.123C412.456 311.123 412.253 311.072 412.063 310.976C411.873 310.874 411.714 310.727 411.581 310.53L408.962 306.532C408.702 306.111 408.423 305.811 408.125 305.639C407.827 305.467 407.447 305.384 406.971 305.384H405.043V309.816C405.043 310.211 404.929 310.523 404.707 310.753C404.485 310.983 404.181 311.097 403.801 311.097C403.42 311.097 403.116 310.983 402.888 310.753C402.659 310.523 402.545 310.211 402.545 309.816V298.236C402.545 297.853 402.653 297.56 402.869 297.343C403.084 297.133 403.382 297.024 403.763 297.024H408.683C410.256 297.024 411.454 297.375 412.278 298.083C413.096 298.791 413.508 299.811 413.508 301.144C413.508 302.228 413.204 303.114 412.595 303.809C411.987 304.504 411.124 304.944 410.008 305.148C410.389 305.237 410.725 305.403 411.01 305.645C411.296 305.888 411.581 306.213 411.86 306.634L413.654 309.388C413.813 309.624 413.889 309.854 413.889 310.083L413.883 310.071ZM410.433 302.872C410.877 302.508 411.105 301.953 411.105 301.201C411.105 300.449 410.883 299.881 410.433 299.53C409.989 299.18 409.286 299.008 408.328 299.008H405.018V303.42H408.328C409.286 303.42 409.989 303.241 410.433 302.878V302.872Z" fill="#2B2B2B"/>
<path d="M428.936 309.969C428.936 310.275 428.815 310.53 428.574 310.74C428.333 310.951 428.054 311.059 427.737 311.059C427.528 311.059 427.332 311.002 427.148 310.893C426.964 310.785 426.818 310.606 426.716 310.37L425.537 307.718H418.607L417.427 310.37C417.319 310.606 417.18 310.785 416.996 310.893C416.812 311.008 416.609 311.059 416.387 311.059C416.083 311.059 415.81 310.957 415.563 310.74C415.316 310.53 415.189 310.275 415.189 309.969C415.189 309.796 415.227 309.624 415.309 309.452L420.743 297.713C420.864 297.452 421.041 297.248 421.282 297.107C421.523 296.967 421.783 296.897 422.062 296.897C422.341 296.897 422.595 296.967 422.842 297.107C423.083 297.248 423.267 297.445 423.381 297.713L428.834 309.452C428.91 309.624 428.955 309.796 428.955 309.969H428.936ZM424.668 305.735L422.069 299.856L419.469 305.735H424.668Z" fill="#2B2B2B"/>
<path d="M62.8407 185.558C79.8468 181.298 97.9246 201.537 83.4485 215.686C74.4762 224.46 57.73 227.343 50.5585 214.934C45.8789 206.829 54.3313 187.687 62.8407 185.558Z" fill="#2B2B2B"/>
<path d="M231.178 95.8602C234.881 98.3343 244.189 101.127 249.357 100.477C259.661 99.1696 263.56 89.8727 273.249 87.947C298.327 82.9542 312.486 107.625 303.983 129.043C296.032 149.059 271.823 154.122 260.783 171.428C246.966 193.095 254.931 229.466 226.162 240.128C204.521 248.149 178.397 239.12 171.948 268.439C167.357 289.303 175.829 308.317 158.15 325.878C137.923 345.97 110.911 330.361 115.001 303.082C117.88 283.876 144.644 282.015 143.757 269.045C143.116 259.716 119.072 254.953 117.537 239.318C115.774 221.438 135.964 213.544 127.759 188.905C125.14 181.031 115.597 169.604 107.449 167.028C95.3378 163.196 83.5058 171.753 72.6249 162.622C60.8626 152.751 68.7316 130.185 84.0067 130.089C102.655 129.974 103.676 154.428 128.659 149.913C137.498 148.313 146.369 140.413 154.752 139.284C179.138 136.006 187.895 164.063 177.674 181.783C169.824 195.39 148.005 197.737 149.4 217.383C150.636 234.861 168.429 236.614 180.73 227.483C197.844 214.781 189.645 189.511 209.264 176.478C218.471 170.363 232.668 169.33 238.59 158.853C234.691 158.241 231.298 161.104 227.506 161.57C207.184 164.056 194.845 146.821 196.912 128.489C197.945 119.345 205.155 109.531 206.068 100.254C207.736 83.2539 191.579 65.9737 173.489 72.0059C153.299 78.7394 159.856 115.194 136.35 124.777C108.552 136.108 94.5896 111.789 72.4157 114.422C61.8138 115.678 53.6531 126.856 44.1228 130.79C13.0844 143.588 -13.0209 108.6 7.03519 82.3995C13.4775 73.9826 26.4635 67.7272 30.826 58.2773C36.2792 46.4554 29.5706 30.1125 45.2451 23.9337C58.7892 18.5966 70.5071 30.9478 85.5476 27.0901C97.9059 23.921 103.568 5.91386 115.895 1.46947C135.926 -5.74868 150.002 15.0705 140.827 32.4272C131.842 49.4204 107.798 41.8962 92.123 43.5987C70.2471 45.9835 71.2236 75.9784 91.9582 80.8755C108.299 84.7333 116.187 72.8986 130.301 68.3075C142.476 64.3477 154.84 65.5784 165.55 57.5632C176.095 49.6691 177.154 35.7748 186.468 28.3973C199.144 18.3607 220.088 26.2994 222.275 42.011C224.989 61.4592 205.738 78.8606 231.184 95.8729L231.178 95.8602Z" fill="#2B2B2B"/>
<path d="M255.235 34.3335C267.98 32.8159 278.67 36.7183 279.913 50.5616C280.579 57.9455 273.826 67.7206 267.022 70.6793C256.3 75.3405 238.488 66.8088 236.948 54.8529C235.204 41.3922 242.401 35.8575 255.235 34.3335Z" fill="#2B2B2B"/>
</svg>
