<svg width="83" height="79" viewBox="0 0 83 79" fill="none" xmlns="http://www.w3.org/2000/svg">
<path d="M8.43712 14.0048C9.68109 18.6608 14.4703 21.4306 19.1261 20.1867C19.7834 20.011 20.4187 19.7533 20.9846 19.4553L22.7702 21.7894C22.5363 22.3419 22.4627 22.9337 22.6123 23.5158C22.9124 24.6827 24.0721 25.5202 25.3107 25.785C25.2577 25.7844 25.206 25.7777 25.1538 25.7799C22.7959 25.8172 21.813 28.6179 23.4395 30.2579C24.9577 31.789 27.5718 30.58 27.5474 33.8054C27.5466 34.055 27.4342 34.5458 27.2722 35.1143C26.9427 35.8361 26.6832 36.5891 26.4935 37.3617C26.4009 37.586 26.3139 37.7765 26.2345 37.9297L12.1899 36.8258C12.1734 36.6542 12.1295 36.4898 12.0856 36.3255C11.2734 33.2854 8.11526 31.459 5.0753 32.2712C2.03535 33.0834 0.207013 36.245 1.02657 39.3125C1.84612 42.38 4.99691 44.179 8.03686 43.3668C9.95395 42.8546 11.3885 41.415 11.9793 39.6726L17.2662 40.0881C16.9686 40.7751 16.8643 41.56 17.0062 42.3437C17.3217 44.0845 18.7271 45.4901 20.5214 45.4626C22.5466 45.4321 24.837 42.2644 26.8476 44.5295C26.8637 44.5457 26.882 44.5702 26.8968 44.5926C27.3281 45.8008 27.931 46.9043 28.6621 47.8945C28.7811 48.1972 28.8658 48.4592 28.8913 48.6314C28.9146 48.7954 28.9232 48.9486 28.9222 49.0985L23.8932 54.6235C22.094 53.4903 19.8113 53.0732 17.5929 53.6659C13.348 54.8001 10.7918 59.1802 11.9333 63.4528C13.0748 67.7253 17.475 70.2469 21.72 69.1127C25.965 67.9786 28.5211 63.5984 27.3796 59.3259C27.2669 58.9041 27.1173 58.4981 26.9398 58.1083C27.6342 58.357 28.4375 58.3654 29.2423 58.0389C32.0452 56.8998 30.5301 53.129 33.0474 52.568C34.4157 52.264 37.6918 53.0935 38.0379 54.7294C38.5347 57.0938 36.1009 58.9119 37.6677 61.5801C38.3471 62.7396 39.372 63.3138 40.4301 63.4302L41.2689 69.6997C39.3447 70.6246 38.2666 72.8492 38.8373 74.9855C39.4886 77.423 41.9873 78.8681 44.4248 78.2169C46.8622 77.5657 48.3072 75.0669 47.656 72.6294C47.1876 70.8766 45.7445 69.6483 44.0753 69.3313L43.1857 62.6851C44.3507 61.8398 45.0592 60.3623 44.5445 58.5456C44.1035 56.9938 42.4309 55.9941 42.8438 54.223C43.211 52.643 46.4626 51.1845 47.9277 51.2097C49.9966 51.2438 50.2216 53.5135 51.6303 54.4371C53.9 55.9257 56.5433 53.9255 55.9506 51.3667L64.4967 56.0406C63.8311 57.8323 63.7115 59.8009 64.2384 61.7728C65.5921 66.8396 70.8325 69.8703 75.8991 68.5166C80.9657 67.1629 83.9962 61.9225 82.6425 56.8557C81.2887 51.7889 76.0484 48.7582 70.9818 50.1119C68.8456 50.6826 67.0914 51.9142 65.8596 53.5638L51.3661 45.6402C51.5908 44.559 52.196 42.5634 52.4977 42.0778C53.7743 40.0143 55.6784 41.9352 57.3404 41.9401C59.6014 41.9463 60.7383 40.4248 60.8664 38.8178C61.7557 39.17 62.763 39.2501 63.7517 38.9859C66.1891 38.3347 67.6341 35.8359 66.9829 33.3984C66.3316 30.9609 63.8329 29.5158 61.3954 30.167C59.4784 30.6792 58.1644 32.3507 58.0302 34.2645L51.6423 35.5927C51.0133 34.7102 49.8654 32.6431 49.7538 32.1594C49.1913 29.7246 51.7445 29.3857 53.0634 28.1501C52.9224 28.534 52.9003 29.0006 53.0516 29.5559C53.2964 30.45 54.2585 31.6131 55.2719 31.5184C56.4632 31.4085 58.276 30.0996 58.0743 28.7626C57.7816 26.8103 54.9942 26.3167 53.655 27.3553C53.9591 26.7694 54.0614 26.164 54.0027 25.5928L63.3119 15.2768C64.5394 15.9172 66.0076 16.1412 67.4591 15.7533C70.4991 14.9411 72.3254 11.783 71.5132 8.7429C70.7009 5.70283 67.5428 3.87638 64.5029 4.68859C61.4629 5.5008 59.6366 8.65897 60.4488 11.699C60.6171 12.329 60.8803 12.8748 61.2257 13.3988L52.4339 23.1363C51.5642 22.594 50.4362 22.4464 49.3213 22.9849C47.0349 24.0917 47.5544 27.3978 45.6189 28.0939C44.6208 28.4545 43.2018 27.9533 42.1264 27.4865L43.7031 16.9037C43.8401 16.8672 43.9843 16.858 44.1212 16.8214C46.5587 16.1701 48.0037 13.6714 47.3524 11.2338C46.7012 8.7963 44.2025 7.3512 41.765 8.00243C39.3276 8.65365 37.8826 11.1524 38.5338 13.59C38.8851 14.9046 39.7748 15.9286 40.8908 16.4814L40.4844 19.2103C38.6057 16.7252 33.4702 17.6013 33.7709 21.7581C33.9189 23.8166 36.302 24.829 35.2854 26.9433C34.8682 27.8089 33.1321 28.6689 31.9593 29.1554L28.4748 24.6139C29.1484 23.401 29.443 20.9015 28.3266 19.941C27.2786 19.0384 25.8868 19.1227 24.7263 19.7321L23.2191 17.7697C25.2066 15.6542 26.0852 12.5732 25.2803 9.56047C24.0364 4.90451 19.2472 2.13474 14.5914 3.37866C9.93558 4.62257 7.18605 9.37719 8.4227 14.0058L8.43712 14.0048ZM25.8868 25.8658L25.8952 25.8753C25.8759 25.8687 25.8572 25.8649 25.8386 25.861C25.8538 25.8629 25.8717 25.8639 25.8868 25.8658Z" fill="#72C9A9"/>
</svg>
