<svg width="66" height="60" viewBox="0 0 66 60" fill="none" xmlns="http://www.w3.org/2000/svg">
<path d="M25.3176 13.4179C26.653 12.2298 28.5449 11.7118 30.4221 12.1601C34.7118 13.1861 36.1046 18.1134 38.7912 20.6865C39.8799 21.7287 41.1931 22.509 42.4094 23.374C43.4634 24.1235 44.5761 24.923 45.3488 25.9999C46.2272 27.2239 46.2168 28.8138 45.3195 30.04C43.6316 32.3464 40.8064 33.3834 38.7912 35.3134C36.1058 37.8866 34.7117 42.8149 30.4221 43.8398C28.5439 44.2891 26.652 43.77 25.3176 42.582C23.1528 40.6541 23.8929 37.5737 25.8234 35.7284C28.2936 33.3675 32.2776 32.8857 34.7697 30.6064C34.8763 30.5096 34.9816 30.4072 35.0861 30.3007C36.3275 29.0408 36.3275 26.9581 35.0861 25.6982C34.9816 25.5917 34.8763 25.4893 34.7697 25.3925C32.2776 23.1132 28.2936 22.6324 25.8234 20.2704C23.8931 18.4242 23.1531 15.3457 25.3176 13.4179Z" fill="#72C9A9"/>
<path fill-rule="evenodd" clip-rule="evenodd" d="M28.8117 0.413016C34.2733 -0.216952 39.283 -0.126862 43.7062 0.68743C48.6986 1.60566 52.9513 3.44635 56.3459 6.15813C61.937 10.624 65.1627 17.3712 65.9318 26.2109C66.4109 31.7129 64.3947 38.4657 60.4016 44.7392C56.5246 50.8305 51.3805 55.6344 46.2902 57.9199C43.1835 59.3148 39.6132 59.9999 35.8342 59.9999C29.839 59.9999 23.3156 58.2774 17.2629 54.9355C12.807 52.4754 8.92571 49.2751 6.0373 45.6835C2.84377 41.7127 0.941445 37.4353 0.382024 32.9716C-0.25992 27.849 -0.0921291 23.2865 0.88007 19.4111C1.83819 15.5903 3.60844 12.2963 6.14374 9.622C10.7105 4.80364 18.2858 1.77306 28.3185 0.475516V0.469657C28.4378 0.454688 28.5538 0.442547 28.6721 0.428641C28.7188 0.422212 28.765 0.41642 28.8117 0.411063V0.413016ZM35.6437 3.21477C33.4452 3.21478 31.1355 3.36134 28.7219 3.65813C19.2301 4.82391 12.6242 7.49291 8.5246 11.8173C4.06216 16.5254 2.45723 23.3173 3.61738 32.5781C4.5561 40.0707 10.2525 47.38 18.8557 52.1308C24.4292 55.2091 30.3948 56.7997 35.8185 56.7997C39.1328 56.7997 42.2444 56.2058 44.9416 54.995C49.3995 52.9935 54.1473 48.5202 57.6418 43.0302L57.6437 43.0292C61.2676 37.3365 63.105 31.3058 62.6857 26.4853C61.9949 18.5489 59.1724 12.551 54.2961 8.65618C49.7924 5.0582 43.4226 3.21477 35.6437 3.21477Z" fill="#72C9A9"/>
</svg>
