<svg width="107" height="107" viewBox="0 0 107 107" fill="none" xmlns="http://www.w3.org/2000/svg">
<path d="M53.5 0C23.9533 0 0 23.9533 0 53.5C0 83.0467 23.9533 107 53.5 107C83.0467 107 107 83.0467 107 53.5C107 23.9533 83.0467 0 53.5 0ZM82.6194 79.5647C79.9034 83.7495 74.7056 85.2309 70.1347 83.3C67.9821 82.3883 66.1208 80.7929 64.9718 78.7448C63.5378 76.1839 64.0443 73.5249 63.2972 70.8184C62.9142 69.4288 62.2209 68.1436 61.2365 67.0863C59.3973 65.1047 56.713 64.0696 54.0413 63.9461C50.3535 63.7752 46.7417 65.3928 44.8076 68.6089C41.775 73.6484 43.9086 80.3972 37.5111 83.2588C32.9243 85.31 27.1378 83.8223 24.3743 79.5615C20.5979 73.7433 24.0704 66.3076 30.3254 64.1266C33.5067 63.0186 36.533 63.9303 39.4199 61.5783C42.0251 59.4543 43.2311 56.0925 43.0222 52.7878C42.7627 48.7138 40.0973 44.1586 35.6814 43.6933C34.8236 43.6015 33.9562 43.6775 33.0921 43.6363C26.0457 43.285 21.1075 36.7039 23.3329 29.9962C25.2416 24.2382 31.1643 21.3829 36.8368 23.5513C39.4832 24.5611 41.7085 26.9605 42.674 29.6164C42.9273 30.3159 43.0444 31.0408 43.114 31.7752C43.2565 33.2978 43.1868 34.8552 43.6933 36.3082C44.3581 38.2202 45.6527 39.9833 47.2576 41.2147C50.7903 43.9244 55.6589 44.0827 59.3277 41.5471C61.7588 39.8662 63.3289 37.1249 63.6486 34.2063C64.2184 29.0212 66.0797 24.3078 71.806 23.0701C77.4501 21.8514 82.6827 25.3873 83.9362 30.9775C85.443 37.6915 80.0743 43.5129 73.3445 43.6522C70.8691 43.7028 69.0584 43.9529 67.1623 45.6907C65.1459 47.5362 64.0981 50.2522 63.9588 52.946C63.7942 56.159 64.9401 59.3941 67.4598 61.4739C71.4483 64.7692 77.3108 62.8952 81.2076 66.8331C84.5282 70.1885 85.2056 75.5762 82.6194 79.5647Z" fill="#2B2B2B"/>
</svg>
